<svg width="835" height="696" viewBox="0 0 835 696" fill="none" xmlns="http://www.w3.org/2000/svg">
<path d="M521.959 62.7304C496.574 69.5566 473.963 87.6884 463.084 109.873C457.537 121.392 456.898 124.805 456.898 142.937C456.898 164.696 461.59 179.628 468.843 180.908C471.83 181.548 472.47 178.561 473.323 162.776C473.963 149.124 475.456 141.657 478.869 135.045C494.015 105.82 528.785 91.9548 561.849 101.981C600.246 113.713 619.231 140.378 617.738 179.841C616.671 202.666 608.139 220.798 589.367 239.996C560.783 269.221 520.679 288.206 472.896 295.458C424.9 302.925 371.571 297.165 273.659 274.34C239.955 266.447 211.797 263.888 177.453 265.168C144.816 266.234 123.484 270.074 94.2599 279.673C64.3956 289.699 10 318.283 10 324.256C10 329.589 17.4661 328.309 37.0912 319.35C75.9147 301.645 106.846 293.325 144.816 290.339C186.626 286.926 225.236 291.832 278.139 307.404C348.746 328.309 391.409 335.775 441.965 335.775C482.069 335.989 499.561 333.642 528.998 324.043C637.576 288.632 689.626 197.12 647.176 116.273C633.523 90.6749 603.019 68.0633 573.581 62.0905C558.863 59.1041 534.118 59.3174 521.959 62.7304Z" fill="#3B82F6"/>
<path d="M304.163 81.289C277.285 87.4752 252.967 104.327 215.85 141.871C174.04 184.107 152.922 200.746 116.018 219.731C106.632 224.638 101.726 228.477 101.726 230.824C101.726 235.943 106.206 235.73 128.391 229.33C166.361 218.238 198.785 199.04 237.182 165.122C277.925 128.859 308.643 112.86 331.254 116.06C359.625 119.899 383.304 142.084 383.304 164.696C383.09 187.734 356.852 213.118 328.908 216.745C307.363 219.731 326.775 231.89 349.173 229.544C384.797 225.491 416.794 191.573 416.154 158.936C415.088 124.166 387.57 91.7415 350.453 81.9289C338.507 78.7292 316.109 78.3026 304.163 81.289Z" fill="#3B82F6"/>
<path d="M651.016 335.775C628.191 339.615 601.313 347.081 555.023 362.653C483.136 386.971 481.643 387.184 421.701 387.184C367.945 386.971 334.668 383.345 305.443 374.385C291.365 370.119 287.312 370.332 287.312 375.239C287.312 383.558 343.84 403.396 392.903 411.929C414.021 415.556 428.954 416.835 455.831 416.835C496.361 416.835 505.321 415.342 569.529 397.637C592.78 391.237 620.085 383.985 630.324 381.638C697.732 366.706 752.128 381.852 772.179 421.528C799.057 474.644 765.567 536.293 708.184 539.279C668.508 541.412 635.87 516.027 629.684 478.27C628.618 471.444 627.338 469.311 624.351 469.311C614.965 469.311 617.312 503.442 627.978 523.28C638.643 542.692 662.748 561.037 688.133 568.717C701.358 572.77 727.596 572.556 741.888 568.29C779.859 557.197 808.23 528.4 819.749 489.576C824.229 474.431 824.868 441.153 820.815 426.648C808.443 382.278 775.806 351.134 729.516 338.975C708.184 333.429 673.414 331.936 651.016 335.775Z" fill="#3B82F6"/>
<path d="M110.258 366.279C100.873 367.346 98.0995 369.906 101.726 374.385C103.646 376.732 108.339 377.585 118.578 377.585C136.496 377.585 167.001 383.985 185.986 391.451C208.811 400.623 224.596 410.863 242.301 427.928C259.153 443.927 264.699 452.033 289.871 497.042C322.082 554.638 349.386 590.262 375.837 609.247C403.995 629.298 430.02 636.978 462.23 635.271C486.975 633.778 507.88 624.392 525.372 607.114C542.224 590.048 550.33 571.916 551.396 547.812C554.17 490.43 514.919 451.393 458.177 455.019C442.818 455.872 437.912 457.152 424.26 464.192C407.195 472.938 402.075 478.27 405.915 482.11C407.621 483.817 412.528 483.177 423.833 479.764C442.179 474.217 458.817 475.071 478.016 482.11C492.095 487.443 502.334 496.829 508.947 510.481C530.918 555.918 491.881 604.34 440.472 595.381C398.235 588.128 368.584 559.331 314.189 473.151C278.352 416.622 250.621 391.664 205.824 376.092C177.88 366.279 141.616 362.653 110.258 366.279Z" fill="#3B82F6"/>
</svg>
